<svg width="14" height="14" viewBox="0 0 14 14" fill="none" xmlns="http://www.w3.org/2000/svg">
<path fill-rule="evenodd" clip-rule="evenodd" d="M6 0.75C3.10051 0.75 0.75 3.10051 0.75 6C0.75 8.8995 3.10051 11.25 6 11.25C7.17925 11.25 8.26769 10.8612 9.14413 10.2048L12.2197 13.2804C12.5126 13.5733 12.9875 13.5733 13.2804 13.2804C13.5733 12.9875 13.5733 12.5126 13.2804 12.2197L10.2048 9.14413C10.8612 8.26769 11.25 7.17925 11.25 6C11.25 3.10051 8.8995 0.75 6 0.75ZM2.25 6C2.25 3.92893 3.92893 2.25 6 2.25C8.07107 2.25 9.75 3.92893 9.75 6C9.75 8.07107 8.07107 9.75 6 9.75C3.92893 9.75 2.25 8.07107 2.25 6Z" fill="#464646"/>
</svg>
